<?xml version="1.0" encoding="UTF-8" standalone="no"?>
<svg
   xmlns:dc="http://purl.org/dc/elements/1.1/"
   xmlns:cc="http://creativecommons.org/ns#"
   xmlns:rdf="http://www.w3.org/1999/02/22-rdf-syntax-ns#"
   xmlns:svg="http://www.w3.org/2000/svg"
   xmlns="http://www.w3.org/2000/svg"
   xmlns:xlink="http://www.w3.org/1999/xlink"
   xmlns:sodipodi="http://sodipodi.sourceforge.net/DTD/sodipodi-0.dtd"
   xmlns:inkscape="http://www.inkscape.org/namespaces/inkscape"
   sodipodi:docname="gyümi.svg"
   inkscape:version="1.0 (4035a4fb49, 2020-05-01)"
   id="svg8"
   version="1.1"
   viewBox="0 0 210 297"
   height="297mm"
   width="210mm">
  <defs
     id="defs2">
    <linearGradient
       id="linearGradient5316"
       inkscape:collect="always">
      <stop
         id="stop5312"
         offset="0"
         style="stop-color:#ffffff;stop-opacity:1" />
      <stop
         id="stop5314"
         offset="1"
         style="stop-color:#b0a302;stop-opacity:1" />
    </linearGradient>
    <linearGradient
       id="linearGradient5284"
       inkscape:collect="always">
      <stop
         id="stop5280"
         offset="0"
         style="stop-color:#ffff00;stop-opacity:1" />
      <stop
         id="stop5282"
         offset="1"
         style="stop-color:#ff0000;stop-opacity:1" />
    </linearGradient>
    <radialGradient
       gradientUnits="userSpaceOnUse"
       gradientTransform="matrix(-0.78546832,0.03021026,-0.02301701,-0.59844714,368.53403,971.94294)"
       r="133.17859"
       fy="614.47101"
       fx="198.48616"
       cy="614.47101"
       cx="198.48616"
       id="radialGradient5286"
       xlink:href="#linearGradient5284"
       inkscape:collect="always" />
    <radialGradient
       gradientUnits="userSpaceOnUse"
       gradientTransform="matrix(-0.62923182,-0.02077657,0.02264295,-0.68575418,722.98071,1012.2726)"
       r="108.66124"
       fy="590.21405"
       fx="451.95834"
       cy="590.21405"
       cx="451.95834"
       id="radialGradient5318"
       xlink:href="#linearGradient5316"
       inkscape:collect="always" />
  </defs>
  <sodipodi:namedview
     inkscape:window-maximized="0"
     inkscape:window-y="85"
     inkscape:window-x="224"
     inkscape:window-height="1041"
     inkscape:window-width="1274"
     showgrid="false"
     inkscape:document-rotation="0"
     inkscape:current-layer="layer1"
     inkscape:document-units="mm"
     inkscape:cy="775.83947"
     inkscape:cx="396.85039"
     inkscape:zoom="0.74564394"
     inkscape:pageshadow="2"
     inkscape:pageopacity="0.0"
     borderopacity="1.0"
     bordercolor="#666666"
     pagecolor="#ffffff"
     id="base" />
  <metadata
     id="metadata5">
    <rdf:RDF>
      <cc:Work
         rdf:about="">
        <dc:format>image/svg+xml</dc:format>
        <dc:type
           rdf:resource="http://purl.org/dc/dcmitype/StillImage" />
        <dc:title></dc:title>
      </cc:Work>
    </rdf:RDF>
  </metadata>
  <g
     id="layer1"
     inkscape:groupmode="layer"
     inkscape:label="Layer 1">
    <path
       id="path10"
       d="m 181.24674,160.97982 c 0,-3.07725 0.17925,-1.24822 -2.45724,-6.51308 -0.67969,-1.35729 -1.34041,-2.73062 -2.18421,-4.00803 -3.35444,-5.07823 -7.62254,-9.15109 -12.83224,-12.52514 -0.72362,-0.46866 -2.04839,-1.37786 -3.00329,-1.50302 -0.51557,-0.0676 -1.34312,0 -1.91118,0 -1.00092,0 -1.94966,-0.2152 -2.73027,0.501 -2.19247,2.0116 -4.58427,11.23199 -3.82237,14.02816 0.29415,1.07956 1.19816,2.43878 1.91118,3.25653 0.24121,0.27664 0.62043,0.44773 0.81908,0.75151 0.23876,0.3651 0.0342,0.88742 0.27303,1.25252 0.13244,0.20251 0.40326,0.30449 0.54605,0.501 0.11719,0.16129 -0.068,0.56449 0,0.75151 0.18566,0.51101 0.58489,0.82277 0.81909,1.25251 0.44769,0.82154 -0.33072,1.88859 0,2.75553 1.19693,3.13772 2.69621,6.21348 4.64144,9.0181 0.12755,0.18391 1.75173,1.56513 1.91118,2.00402 0.0576,0.15843 -0.0814,0.35164 0,0.50101 0.1341,0.24606 2.08921,2.23273 2.18421,2.25452 0.26488,0.0608 0.55657,-0.0688 0.81908,0 1.11668,0.29273 2.06722,0.87875 3.27633,1.00201 1.86381,0.19001 6.6361,0.23957 8.46381,0 0.75071,0.46041 0.70077,-0.39842 1.09211,-0.501 1.24269,-0.32576 1.88053,-0.22238 2.73027,-1.00201 0.21053,-0.19317 0.97548,-1.28902 1.0921,-1.50302 0.0814,-0.14937 -0.0814,-0.35163 0,-0.501 0.11512,-0.21125 0.41362,-0.29849 0.54605,-0.50101 0.53312,-0.81523 0.14494,-0.54735 0.27303,-1.25252 0.55215,-3.0396 1.84246,-5.10463 -0.27303,-8.01608 -1.06171,-1.46118 0.48724,-2.00402 -2.18421,-2.00402 z"
       style="fill:none;stroke:#000000;stroke-width:0.183065px;stroke-linecap:butt;stroke-linejoin:miter;stroke-opacity:1" />
    <path
       id="path12"
       d="m 156.12831,137.18206 c -1.10004,-0.96784 -3.28522,-1.26069 -4.36843,-2.25453 -1.00522,-0.9223 -1.79412,-2.02443 -2.73026,-3.00603 -1.032,-1.08213 -2.49166,-1.7851 -3.54934,-2.75553 -0.0163,-0.0149 1.76122,-0.40927 1.91119,-0.501 0.3658,-0.22376 0.68275,-0.62632 1.0921,-0.75151 1.15958,-0.35465 2.77133,-0.25993 3.82237,-0.50101 0.46218,-0.10601 0.97409,-0.41131 1.36513,-0.50101 0.26488,-0.0608 0.62602,-0.17713 0.81908,0 1.18888,1.09081 0.0563,0.65584 0.27303,1.25252 0.33335,0.91755 0.75591,1.83017 1.0921,2.75553 0.40071,1.10296 -0.0646,4.71347 0.27303,6.26257 z"
       style="fill:none;stroke:#000000;stroke-width:0.183065px;stroke-linecap:butt;stroke-linejoin:miter;stroke-opacity:1" />
    <path
       id="path14"
       d="m 32.983644,153.88165 c 0.05827,-6.14848 -0.121918,-7.52532 -6.51672,-10.90773 -3.055154,-1.61597 -6.591104,-2.71321 -9.930241,-3.80502 -1.459155,-0.47711 -4.352829,-0.95451 -5.896081,-0.25367 -0.452113,0.20532 -0.607867,0.68454 -0.9309587,1.01467 -2.409368,2.46189 -3.8830922,4.93701 -5.2754422,7.86372 -0.369246,0.77615 -1.007941,1.47236 -1.241278,2.283 -0.189535,0.65847 0.05505,1.3544 0,2.02935 -0.381997,4.6839 -1.892749,9.97644 0.620639,14.45908 1.63318,2.91278 1.554249,1.77828 3.1032012,3.29769 1.465921,1.43796 -0.276319,0.0389 1.241279,1.77568 0.680217,0.77844 1.695338,1.32148 2.4825597,2.02934 1.084447,0.97511 1.590005,1.71728 2.792881,2.53668 2.480256,1.68955 4.470117,0.5758 5.27544,1.01467 0.299673,0.16331 0.693301,0.9283 1.5516,0.50734 0.988098,-0.48463 0.963258,-1.28594 1.86192,-1.77568 0.248322,-0.13532 2.831604,-0.14801 3.1032,0 0.627038,0.34172 0.982684,1.56429 1.551601,2.02935 0.127864,0.10452 1.30625,0.91439 1.551598,1.01467 0.471761,0.19281 1.178642,-0.0512 1.5516,0.25367 0.07314,0.0598 -0.08607,0.20676 0,0.25367 0.354866,0.19338 0.939705,0.007 1.241281,0.25367 0.07314,0.0598 -0.10344,0.25366 0,0.25366 0.10344,0 0.07314,-0.31345 0,-0.25366 -0.523829,0.42819 -0.952718,1.01171 -0.930961,1.01467 1.299028,0.17698 11.683732,0.17027 12.412801,0 1.20178,-0.28069 2.227788,-0.94526 3.41352,-1.26834 0.196263,-0.0535 0.4356,0.0756 0.62064,0 3.892724,-1.59104 -2.407326,0.1276 3.413519,-1.77568 0.288126,-0.0942 0.620642,0 0.930961,0 0.31032,-0.0846 0.638387,-0.13409 0.930959,-0.25367 0.462598,-0.18907 0.750622,-0.62731 1.241281,-0.761 0.196265,-0.0535 0.435602,0.0756 0.62064,0 0.261685,-0.10696 0.377205,-0.37468 0.620639,-0.50734 0.464412,-0.25309 1.373674,-0.46167 1.861921,-0.761 1.106923,-0.67864 2.118113,-1.73143 3.103203,-2.53668 0.406955,-0.72789 1.83386,-1.24541 2.48256,-1.77569 1.706745,-1.39516 3.168887,-3.258 4.654798,-4.81968 4.066007,-4.43163 -2.08746,1.96003 2.172237,-1.52201 1.410247,-1.15279 3.853342,-4.73579 4.344483,-6.3417 0.322688,-1.05512 0,-2.96855 0,-4.05869 0,-4.74757 0.501346,-6.53674 -2.172237,-10.90774 -0.337613,-0.55194 -0.466043,-1.20515 -1.241284,-1.52201 -2.690989,-1.09986 -5.505892,-0.83403 -8.378643,-1.01467 -4.985018,-0.31346 0.186089,-0.25367 -3.723836,-0.25367 -2.027734,0 -6.815619,-0.45092 -8.378641,0.50734 -0.18504,0.11344 -0.146768,0.37365 -0.31032,0.50734 -0.07314,0.0598 -0.206879,0 -0.310319,0 -0.20688,0.0846 -0.486202,0.0998 -0.620642,0.25366 -1.034399,1.18379 -0.620639,1.18379 -1.241279,2.02935 -0.599166,0.8163 -1.259482,1.46225 -1.86192,2.28301 -0.547948,0.74653 -2.796851,2.03584 -3.103199,2.53668 -0.04626,0.0756 0.07314,0.19388 0,0.25367 -0.579491,0.4737 -2.004072,0.62354 -2.482562,1.01467 -0.163552,0.1337 -0.146765,0.37365 -0.31032,0.50735 -0.71695,0.58606 -1.764146,0.56524 -2.48256,0.76099 -1.52514,0.41558 -2.567363,1.49916 -3.413518,2.53669 z"
       style="fill:none;stroke:#000000;stroke-width:0.196397px;stroke-linecap:butt;stroke-linejoin:miter;stroke-opacity:1" />
    <path
       id="path16"
       d="m 32.983644,153.88165 c 2.11731,-5.35394 3.250753,-12.18851 0,-17.5031 -0.240939,-0.3939 -3.448531,-2.76173 -2.482562,-3.55136 1.204502,-0.9846 6.839104,0.22025 8.068321,0.50734 0.750889,0.17538 8.252595,1.41898 8.37864,1.52201 0.367621,0.30051 -1.754951,0.38665 -3.103199,1.26834 -0.180616,0.11812 -0.132633,0.3863 -0.310322,0.50733 -2.229837,1.51897 -2.36924,1.08309 -3.723839,3.29769 -0.64981,1.06236 -1.629499,1.93488 -2.17224,3.04402 -0.306371,0.6261 0.369464,1.67899 0,2.28302 -0.04626,0.0756 -0.237178,-0.0598 -0.31032,0 -0.21943,0.17936 0.07526,0.5149 0,0.76099 -0.143076,0.46783 -0.395278,0.64624 -0.620641,1.01468 -0.305256,0.49906 -0.730348,2.38807 -0.930959,3.04401 -0.328933,1.07554 -1.741135,1.22581 -2.17224,2.28302 -0.06542,0.16043 0,0.33823 0,0.50733 -0.20688,0.33823 -0.413759,0.67646 -0.620639,1.01468 z"
       style="fill:none;stroke:#000000;stroke-width:0.196397px;stroke-linecap:butt;stroke-linejoin:miter;stroke-opacity:1" />
    <path
       id="path18"
       d="m 108.86252,109.11248 c -3.47046,-0.0179 -7.16136,2.39403 -8.67191,4.91988 -0.532412,0.89028 -1.538642,1.54122 -2.167977,2.33048 -0.868367,1.08903 -0.130422,2.54856 -0.619419,3.36623 -0.09822,0.16425 -0.923169,1.27477 -0.929134,1.29471 -0.511137,1.70939 0.29576,3.55518 0.619428,5.17883 0.08486,0.4257 -0.286328,0.93562 0,1.29471 0.161969,0.20313 0.488833,0.29952 0.61942,0.51788 0.340211,0.56889 0,5.0182 0,5.95565 0,2.3519 -0.251873,4.71788 -1.858267,6.73248 -0.16197,0.20313 -0.474551,0.30591 -0.61942,0.51788 -0.275832,0.40357 -0.272128,0.93175 -0.61942,1.29471 -0.503696,0.52641 -1.288125,0.81803 -1.858267,1.29471 -1.07496,0.89874 -1.937092,1.97548 -3.097106,2.84835 -1.342861,1.01046 -4.091939,2.18139 -4.955373,3.62519 -1.775255,2.96849 -2.467092,6.18802 -3.716534,9.32188 -0.146,0.3662 -0.492586,0.66461 -0.61942,1.03577 -0.319219,0.93413 -0.719189,7.34248 -0.309706,8.02719 0.101597,0.16988 2.580218,0.68934 3.097107,1.55364 0.248628,0.41574 0.324766,0.90055 0.619419,1.29471 0.449249,0.60098 1.57307,1.09725 1.858267,1.81259 0.44652,1.11998 -0.915736,0.46295 0.929134,1.81259 1.67315,1.22402 4.400767,1.03577 6.503918,1.03577 2.392109,0 7.55406,0.16668 9.60104,-0.51789 0.7663,-0.25627 1.65074,-0.8053 2.47769,-1.03576 0.19587,-0.0546 0.45819,0.10783 0.61942,0 0.40306,-0.2696 0.50909,-0.78493 0.92913,-1.03577 1.3429,-0.80198 3.44226,-0.006 4.95538,-0.25894 0.73698,-0.12323 1.49574,-0.23686 2.16797,-0.51788 0.2163,-0.0904 0.98027,-1.05002 1.85827,-1.29471 0.12872,-0.0359 1.92936,-0.36826 2.16797,-0.51788 0.18468,-0.1158 0.11763,-0.41083 0.30971,-0.51789 0.27922,-0.15563 5.26095,-0.25894 6.19422,-0.25894 2.67757,0 4.36149,-0.0107 6.81364,-1.03576 0.61942,-0.25895 0,-0.51788 0.92912,-0.77683 0.39176,-0.10918 0.85929,0.136 1.23885,0 0.40258,-0.14425 0.61942,-0.51788 0.92913,-0.77682 1.9349,-1.61772 2.86575,-2.33975 3.09711,-4.66095 0.20276,-2.03424 1.08941,-8.24582 0,-9.83977 -0.69156,-1.01184 -2.61239,-2.15599 -3.71653,-2.84835 -0.60126,-0.37703 -1.48118,-0.26268 -2.16798,-0.51789 -3.70966,-1.37847 -7.39162,-3.05546 -11.14958,-4.402 -0.81074,-0.29051 -1.65872,-0.50294 -2.47769,-0.77683 -0.64686,-0.21633 -1.85052,0.0557 -2.47769,-0.25894 -1.69213,-0.84885 -3.24217,-1.67493 -4.64566,-2.84836 -0.39312,-0.32867 -0.3708,-0.87896 -0.61942,-1.29471 -2.70918,-4.53015 -1.33505,-9.42986 -1.85826,-14.24177 -0.32825,-3.01884 -0.30972,-6.01859 -0.30972,-9.06295 0,-1.25236 0.22068,-2.85154 0,-4.14306 -0.1177,-0.68889 -0.89825,-1.57947 -0.3097,-2.07154 0.073,-0.061 0.22381,0.0479 0.3097,0 0.82837,-0.46171 0.68278,-0.72974 0.92914,-1.55364 z"
       style="fill:none;stroke:#000000;stroke-width:0.198233px;stroke-linecap:butt;stroke-linejoin:miter;stroke-opacity:1" />
    <path
       id="path20"
       d="m 108.86252,109.11248 c 1.32278,-1.00492 4.14979,-2.53706 4.95537,-3.88413 0.48204,-0.80604 0.6517,-1.85307 1.23884,-2.58941 0.60981,-0.76476 1.49056,-1.48091 2.16798,-2.33047 0.10706,-0.13427 3.23586,-3.778474 2.47769,-3.884123 -0.611,-0.08514 -1.26145,0.138608 -1.85827,0 -1.29312,-0.300318 -2.44829,-0.927663 -3.71653,-1.294707 -1.42045,-0.411096 -2.88763,-0.699405 -4.33595,-1.035766 -0.41013,-0.09525 -0.87385,-0.07584 -1.23885,-0.258941 -0.19794,-0.0993 -0.14647,-0.654357 -0.3097,-0.517883 -0.219,0.183099 0,0.517883 0,0.776824 0,0.776824 -0.0618,1.555369 0,2.330473 0.0912,1.143256 0.43051,2.260652 0.61942,3.366238 0.11679,0.683575 -0.10244,1.386355 0,2.071535 0.14483,0.9687 0.36229,0.95267 0.61942,1.81259 0.45524,1.52245 0.78461,3.98778 0.92913,5.43777 0,0 -0.69884,0 -1.54855,0 z"
       style="fill:none;stroke:#000000;stroke-width:0.198233px;stroke-linecap:butt;stroke-linejoin:miter;stroke-opacity:1" />
    <path
       transform="scale(0.26458333)"
       id="path5264"
       d="m 46.584249,525.07572 c -10.335155,0.98221 -15.012665,12.75709 -20.855505,19.9623 -8.870923,12.48621 -14.005061,27.10851 -14.078513,42.47818 -1.214199,16.65383 -3.640196,36.80349 10.467005,49.02178 10.915254,10.81083 20.864858,23.88864 34.865952,30.70199 5.951864,1.72759 12.658022,1.06138 18.21517,3.26899 5.907274,-4.63526 15.490191,-11.615 22.259494,-4.41366 3.897628,6.33059 10.222648,9.34368 17.020728,11.06164 3.23769,2.32625 4.88243,5.77044 9.86197,5.16542 17.95844,0.59102 37.46899,1.29704 53.86232,-7.00685 6.56694,-5.4609 16.72734,-3.28227 23.78854,-8.61082 14.20891,-5.79849 25.11103,-17.13304 36.83474,-26.63538 6.94916,-6.71255 12.66195,-15.3225 21.28736,-19.61671 9.12654,-9.45449 16.95867,-21.6228 14.58471,-35.36164 -0.1262,-14.92705 0.84775,-31.091 -9.22546,-43.44242 -6.67752,-9.09305 -20.04937,-5.76149 -29.7894,-7.73437 -15.99445,-0.24411 -32.55442,-2.94192 -48.25766,0.31105 -8.24343,3.51754 -10.73749,12.81985 -17.21718,18.59236 -8.10483,9.05277 -18.7219,15.60983 -29.92904,19.75275 -6.6418,0.92932 -11.00881,7.42648 -16.34493,9.9615 -0.98931,-11.73544 -0.0757,-26.21481 -11.63529,-33.3709 -19.249285,-11.89864 -40.963495,-21.1669 -63.501636,-24.1114 l -1.341027,0.0159 z"
       style="opacity:1;fill:url(#radialGradient5286);fill-opacity:1;fill-rule:nonzero;stroke:none;stroke-width:1.91601;stroke-miterlimit:4;stroke-dasharray:none;stroke-opacity:1" />
    <path
       transform="scale(0.26458333)"
       id="path5298"
       d="m 405.63056,414.4331 c -15.64972,2.70244 -26.64915,16.48668 -34.89539,28.95725 -0.24251,6.66834 -3.94984,12.32688 -5.54784,18.55045 -0.0243,13.06485 8.31424,24.61273 5.53114,37.86212 -0.23631,13.40136 -1.86713,27.30839 -11.0266,37.85369 -7.30281,7.08613 -15.73303,13.46334 -23.85994,19.8549 -11.07095,5.69647 -18.85869,15.67617 -22.04208,27.68685 -3.96347,12.6968 -11.46104,24.34911 -10.48531,38.15698 -1.35039,7.90407 -1.76544,15.04557 7.60399,16.49901 5.54772,3.0259 7.49648,9.49292 12.56778,13.14142 0.88301,8.68263 11.10299,11.28598 18.62642,11.29216 20.72855,-0.40888 43.99626,3.59371 61.92215,-9.2569 10.61589,-2.79663 22.99144,0.6836 32.00883,-7.05398 6.48351,-1.38681 11.16232,-5.98539 18.14968,-4.96635 16.19275,-0.34375 33.19328,-0.48011 47.87179,-7.97339 11.47348,-4.11027 17.59974,-17.29983 17.12027,-29.05679 -0.25651,-10.25787 4.2044,-24.03778 -6.28128,-30.6808 -10.08596,-9.47058 -24.68988,-9.96627 -36.60463,-16.23192 -13.91216,-5.85814 -28.33958,-10.61957 -42.93808,-14.03764 -11.00666,-3.89489 -19.4138,-12.59063 -22.28569,-23.96995 -4.88997,-31.79174 -1.61872,-64.32438 -4.9873,-96.27532 -2.72123,-4.74756 0.90249,-8.79075 4.85371,-11.2188 -1.76721,0.289 -3.53442,0.57801 -5.30162,0.86701 z"
       style="opacity:1;fill:url(#radialGradient5318);fill-opacity:1;fill-rule:nonzero;stroke:none;stroke-width:1.91601;stroke-miterlimit:4;stroke-dasharray:none;stroke-opacity:1" />
  </g>
  <g
     style="display:none"
     inkscape:label="bowl"
     id="layer2"
     inkscape:groupmode="layer">
    <path
       id="path247"
       d="m 2.6458333,150.05655 c 1.6378968,1.38591 3.1035577,3.00583 4.9136905,4.15773 2.2174602,1.41112 2.7886242,0.70556 4.5357142,1.51191 3.757893,1.73441 3.549607,2.17962 7.559524,3.02381 5.690838,1.19807 1.105926,-0.31265 6.803571,0.37797 3.043245,0.36888 6.028454,1.14082 9.071427,1.51191 6.998978,0.85353 14.140061,0.58457 21.166667,0.75595 14.992977,0.36568 29.97777,0.37798 44.979163,0.37798 12.47322,0 24.94643,0 37.41965,0 2.72677,0 10.38762,0.56831 13.22916,0 2.6189,-0.52378 5.86228,-1.70286 8.31548,-3.02381 0.79994,-0.43074 1.45523,-1.1056 2.26786,-1.51191 2.4587,-1.22935 1.79816,-0.19084 3.77976,-1.5119 0.59302,-0.39535 0.94173,-1.08427 1.5119,-1.51191 1.19305,-0.89479 0.4719,0.28406 1.88988,-1.13392 1.09633,-1.09633 1.96253,-2.71849 3.02381,-3.77977 0.70458,-0.70458 2.2035,-0.82631 3.02381,-1.13393 1.38339,-0.51876 2.20689,-1.67041 3.40179,-2.26785 0.33807,-0.16904 0.78299,0.14037 1.13393,0 0.42178,-0.16871 0.70858,-0.59645 1.13393,-0.75595 1.72516,-0.64694 1.62485,-0.0565 3.02381,-0.75596 1.6004,-0.8002 1.88988,-2.65503 1.88988,0.75596 0,3.03238 -0.57867,10.15854 0,12.47321 0.94735,3.78939 3.68265,7.26819 4.91369,10.96131 1.11051,3.33154 1.70559,10.94437 0.75595,14.36309 -0.55411,1.99482 -2.46125,5.027 -3.40179,6.80358 -3.54759,6.701 -5.59452,9.00394 -10.58333,14.74107 -3.44536,3.96215 -6.21228,7.90157 -10.58333,10.9613 -5.52711,3.86898 -12.92969,5.66254 -18.89881,8.31548 -2.21463,0.98428 -4.20829,2.42356 -6.4256,3.40179 -5.45001,2.40441 -11.39357,3.72587 -17.00893,5.66964 -1.65832,0.57404 -3.22065,1.42814 -4.91369,1.88988 -3.34578,0.91249 -10.30986,1.21536 -13.98512,0.75595 -1.03093,-0.12886 -1.99898,-0.58515 -3.02381,-0.75595 -1.04393,-0.17399 -7.793504,-0.66896 -8.315471,-0.75595 -1.537232,-0.25621 -3.000325,-0.8669 -4.535715,-1.13393 -1.371047,-0.23844 -2.795961,-0.0913 -4.157737,-0.37798 -1.053385,-0.22176 -1.983681,-0.85656 -3.023809,-1.13393 -9.252952,-2.46745 10.548805,5.7666 -11.717263,-3.40178 -1.358635,-0.55944 -2.454249,-1.63392 -3.779761,-2.26786 -8.912794,-4.26264 -0.988097,0.45089 -9.449406,-3.77976 -0.583665,-0.29183 -3.70759,-2.96829 -3.77976,-3.02381 -2.239497,-1.72269 -4.22057,-3.52764 -6.425597,-5.29166 -0.846325,-0.67707 -1.879452,-1.12351 -2.645833,-1.88989 -4.339984,-4.33998 -7.902837,-9.13992 -12.851191,-12.85119 -4.356224,-3.26716 -9.2219,-5.75066 -13.985118,-8.31547 -1.827553,-0.98407 -3.48394,-2.3688 -5.291666,-3.40179 -1.123905,-0.64223 -6.2520812,-3.81071 -6.8035716,-4.91369 -0.1511906,-0.30238 0.1511903,-0.83155 0,-1.13393 -0.7500855,-1.50017 -2.3356157,-6.59322 -2.6458333,-7.9375 -0.1133221,-0.49106 0.1222301,-1.02298 0,-1.5119 -0.2472655,-0.98906 -1.2075985,-2.11089 -1.5119048,-3.02381 -0.3002956,-0.90089 0.3002955,-0.61102 0,-1.51191 -0.8648993,-2.59469 -0.7559524,-4.3845 -0.7559524,-7.18154 0,-0.73213 0.5630962,-4.62441 0.7559524,-4.91369 0.156274,-0.23442 0.5567415,-0.17877 0.7559524,-0.37798 0.710896,-0.7109 -0.623249,-4.20396 -0.7559524,-4.53571 z"
       style="mix-blend-mode:normal;fill:#ffff00;fill-opacity:1;stroke:#000000;stroke-width:0.264583px;stroke-linecap:butt;stroke-linejoin:miter;stroke-opacity:1" />
  </g>
</svg>
